<svg width="128" height="69" viewBox="0 0 128 69" fill="none" xmlns="http://www.w3.org/2000/svg">
<path d="M122.696 41.6025C125.319 41.6025 127.444 39.6204 127.444 37.1753C127.444 34.7302 125.319 32.748 122.696 32.748C120.074 32.748 117.949 34.7302 117.949 37.1753C117.949 39.6204 120.074 41.6025 122.696 41.6025Z" fill="#E84E24"/>
<path d="M36.8589 41.6025C29.9869 41.6025 26.4884 37.7578 26.4884 29.9519V14.107H37.1088V27.5052C36.9838 28.9033 37.3587 30.4179 37.9834 31.6995C38.6081 32.515 39.7326 32.981 40.9821 32.981C42.1066 32.981 43.2311 32.515 43.8558 31.6995C44.6055 30.5344 44.9804 29.1363 44.8554 27.7383V14.107H55.6007V41.02H44.9804V38.2238C42.9812 40.4374 39.9825 41.719 36.8589 41.6025Z" fill="white"/>
<path d="M105.454 13.9905C96.8327 12.3594 89.0861 16.4371 87.087 24.1266C84.9629 31.35 89.461 38.9229 97.2076 40.9035L97.8323 41.02C105.454 42.7676 113.575 39.9714 115.824 34.0296L109.327 32.282C108.828 32.1655 108.453 32.049 108.453 32.049C107.828 32.6315 107.078 33.0975 106.204 33.4471C103.705 34.2626 101.081 34.1461 98.7069 33.2141C97.3325 32.6315 96.4579 31.4665 96.208 30.0684H116.199C118.073 22.9615 113.326 15.7381 105.704 13.9905H105.454ZM96.208 24.5926C96.4579 22.0294 98.9568 20.8644 101.581 20.9809C104.205 21.0974 106.454 21.7964 107.078 24.5926H96.208Z" fill="white"/>
<path d="M84.4633 32.049C84.5883 29.2529 82.7141 26.6897 79.8404 25.7577C78.0911 25.0586 76.092 24.5926 74.2178 24.3596C72.9683 24.2431 69.7198 24.2431 69.5948 23.078C69.4699 21.913 72.3436 21.68 75.4673 21.913C77.5913 22.0295 79.7154 22.4955 81.7145 22.9615L82.8391 15.1556C82.8391 15.1556 77.9662 14.2235 75.8421 13.9905C72.5935 13.641 69.3449 13.874 66.2213 14.6896C61.8482 15.7381 58.8495 19.5828 59.3493 23.8936C59.5992 29.1364 65.2217 30.5344 66.7211 30.7675C71.0942 31.583 73.843 31.2335 73.9679 32.5151C74.0929 33.7966 70.4694 33.6801 65.7215 32.9811C64.0972 32.7481 62.4729 32.282 60.7237 31.9325C60.5987 34.4957 59.7241 39.855 59.7241 39.855C59.7241 39.855 64.2222 40.9035 66.2213 41.1365C69.7198 41.7191 73.2182 41.6025 76.5918 40.9035C81.5896 39.7384 84.7132 36.8258 84.4633 32.049Z" fill="white"/>
<path d="M21.2408 14.107H17.6173L10.6204 19.9323L5.62256 24.0101V41.02H16.3679V22.845H22.2403V14.107H21.2408Z" fill="white"/>
<path d="M23.7397 2.10686C23.4898 1.99036 23.2399 1.75734 22.99 1.64084L22.865 1.52433C22.2403 1.29132 21.6156 0.9418 20.9909 0.825294C19.2416 0.242762 17.4924 0.00974919 15.8681 0.00974919C13.1193 -0.106757 10.3705 0.825294 8.4963 2.57289C6.49717 4.78651 5.49761 7.46616 5.62255 10.2623V14.107H0V22.845H4.12321L12.3696 16.0876L16.4928 12.7089V10.4953C16.3679 9.33026 17.2425 8.2817 18.492 8.1652C18.7418 8.1652 18.8668 8.1652 19.1167 8.1652C20.1162 8.1652 21.1158 8.39821 22.1154 8.86423L22.7401 9.21375L24.7392 2.57289L23.7397 2.10686Z" fill="white"/>
<path d="M101.905 50.6962H98.7323V63.5855H101.905V50.6962Z" fill="#E84E24"/>
<path d="M98.789 48.2134C99.2044 48.6008 99.7143 48.7945 100.319 48.7945C100.923 48.7945 101.433 48.6008 101.848 48.2134C102.264 47.826 102.471 47.3594 102.471 46.8136C102.471 46.2853 102.264 45.8275 101.848 45.4401C101.433 45.0527 100.923 44.859 100.319 44.859C99.7143 44.859 99.2044 45.0527 98.789 45.4401C98.3924 45.8275 98.1941 46.2853 98.1941 46.8136C98.1941 47.3594 98.3924 47.826 98.789 48.2134Z" fill="#E84E24"/>
<path d="M61.0406 44.9989H57.8682V49.9538L61.0406 47.3135V44.9989Z" fill="#E84E24"/>
<path d="M61.0406 49.2803L57.8682 51.9206V63.5855H61.0406V49.2803Z" fill="#E84E24"/>
<path fill-rule="evenodd" clip-rule="evenodd" d="M78.3323 62.2648V50.6962H75.1599V52.0696H75.1032C74.5367 51.5414 73.8758 51.1452 73.1204 50.8811C72.3839 50.617 71.6097 50.4849 70.7977 50.4849C69.8346 50.4849 68.9471 50.6522 68.1351 50.9867C67.342 51.3037 66.6527 51.7527 66.0673 52.3338C65.5008 52.9148 65.0476 53.6016 64.7077 54.3939C64.3867 55.1863 64.2262 56.0579 64.2262 57.0088C64.2262 57.9596 64.3961 58.8312 64.736 59.6236C65.0759 60.3984 65.548 61.0675 66.1523 61.6309C66.7566 62.1768 67.4647 62.6082 68.2767 62.9251C69.1076 63.2245 70.0046 63.3742 70.9677 63.3742C71.8363 63.3742 72.62 63.2421 73.3187 62.978C74.0363 62.6962 74.6594 62.3 75.1882 61.7894H75.2165V63.1629C75.2165 63.5855 75.1315 63.9904 74.9616 64.3778C74.7916 64.7652 74.5272 65.0998 74.1685 65.3815C73.8285 65.6808 73.4037 65.9097 72.8938 66.0682C72.3839 66.2443 71.7891 66.3323 71.1093 66.3323C70.6183 66.3323 70.1651 66.2971 69.7497 66.2267C69.3342 66.1739 68.9377 66.0858 68.56 65.9626C68.2012 65.8569 67.8424 65.7249 67.4836 65.5664C67.1437 65.4255 66.7849 65.2582 66.4072 65.0645L65.6424 67.653C66.4356 68.0932 67.3137 68.4277 68.2767 68.6566C69.2398 68.8855 70.2406 69 71.2792 69C72.5633 69 73.6492 68.8327 74.5367 68.4982C75.4431 68.1636 76.1701 67.697 76.7178 67.0983C77.2843 66.4996 77.6903 65.7865 77.9358 64.9589C78.2001 64.1489 78.3323 63.2509 78.3323 62.2648ZM72.9505 60.3896C72.4784 60.5656 71.9591 60.6537 71.3925 60.6537C70.826 60.6537 70.3067 60.5656 69.8346 60.3896C69.3625 60.2135 68.9471 59.967 68.5883 59.65C68.2295 59.3331 67.9463 58.9457 67.7385 58.4879C67.5497 58.03 67.4553 57.5106 67.4553 56.9295C67.4553 55.8202 67.8141 54.9222 68.5317 54.2355C69.2492 53.5487 70.2029 53.2054 71.3925 53.2054C71.9402 53.2054 72.45 53.2934 72.9221 53.4695C73.4131 53.6456 73.8285 53.9009 74.1685 54.2355C74.5272 54.5524 74.8011 54.9398 74.9899 55.3976C75.1976 55.8378 75.3015 56.3308 75.3015 56.8767C75.3015 57.4226 75.2071 57.9332 75.0182 58.4086C74.8294 58.8664 74.5556 59.2626 74.1968 59.5972C73.8569 59.9317 73.4414 60.1959 72.9505 60.3896Z" fill="#E84E24"/>
<path d="M89.8728 50.5113C90.6281 50.5113 91.3174 50.617 91.9406 50.8283C92.5637 51.0396 93.0925 51.3653 93.5268 51.8055C93.98 52.2457 94.3294 52.818 94.5749 53.5223C94.8203 54.209 94.9431 55.0366 94.9431 56.0051V63.5855H91.7706V56.771C91.7706 55.4152 91.5062 54.482 90.9775 53.9713C90.4488 53.4431 89.7123 53.179 88.7681 53.179C87.6917 53.179 86.8231 53.5223 86.1621 54.209C85.5201 54.8782 85.1991 55.8466 85.1991 57.1144V63.5855H82.0266V50.6962H85.1991V52.4922H85.2274C85.8128 51.8407 86.502 51.3477 87.2952 51.0131C88.1072 50.6786 88.9664 50.5113 89.8728 50.5113Z" fill="#E84E24"/>
<path d="M110.076 63.7968C108.886 63.7968 107.942 63.4446 107.243 62.7403C106.563 62.0359 106.223 60.9618 106.223 59.5179V53.2054H104.524V50.6962H106.223V46.4174L109.396 46.1004V50.6962H113.446V53.2054H109.396V59.2274C109.396 59.8965 109.5 60.3631 109.707 60.6273C109.934 60.8914 110.274 61.0234 110.727 61.0234C110.991 61.0234 111.303 60.9794 111.662 60.8914C112.021 60.8033 112.389 60.6625 112.767 60.4688L113.588 63.0308C113.173 63.2421 112.71 63.427 112.2 63.5855C111.69 63.7263 110.982 63.7968 110.076 63.7968Z" fill="#E84E24"/>
<path fill-rule="evenodd" clip-rule="evenodd" d="M127.972 57.6691C127.991 57.4578 128 57.2289 128 56.9823C128 56.0491 127.839 55.1863 127.518 54.3939C127.197 53.6016 126.744 52.9236 126.159 52.3602C125.592 51.7791 124.894 51.3301 124.063 51.0131C123.232 50.6786 122.307 50.5113 121.287 50.5113C120.324 50.5113 119.427 50.6698 118.596 50.9867C117.784 51.3037 117.076 51.7527 116.471 52.3338C115.867 52.9148 115.395 53.6192 115.055 54.4468C114.715 55.2567 114.545 56.1548 114.545 57.1408C114.545 58.1445 114.725 59.0601 115.083 59.8877C115.442 60.6977 115.933 61.3932 116.556 61.9743C117.198 62.5554 117.944 63.0044 118.794 63.3213C119.663 63.6383 120.598 63.7968 121.598 63.7968C122.958 63.7968 124.119 63.5678 125.082 63.11C126.064 62.6522 126.848 62.0711 127.433 61.3668L125.224 59.5972C124.865 60.0022 124.403 60.3543 123.836 60.6537C123.27 60.953 122.58 61.1027 121.768 61.1027C120.749 61.1027 119.889 60.8474 119.191 60.3367C118.492 59.8085 118.039 59.0865 117.831 58.1709H127.915C127.934 58.0476 127.953 57.8804 127.972 57.6691ZM119.162 53.8657C119.804 53.4079 120.569 53.179 121.457 53.179C122.363 53.179 123.09 53.4167 123.638 53.8921C124.204 54.3675 124.591 55.0014 124.799 55.7938H117.888C118.114 54.9486 118.539 54.3059 119.162 53.8657Z" fill="#E84E24"/>
</svg>
